<?xml version="1.0" encoding="UTF-8"?> <svg xmlns="http://www.w3.org/2000/svg" xmlns:xlink="http://www.w3.org/1999/xlink" id="Capa_1" x="0px" y="0px" viewBox="0 0 362.143 362.143" style="enable-background:new 0 0 362.143 362.143;" xml:space="preserve" width="512px" height="512px"><g><g> <path d="M315.041,1.417H47.104v52.497h11.33v306.81h245.277V53.915h11.33V1.417z M123.572,193.04v64.5h-39v-64.5H123.572z M84.572,166.725v-64.5h39v64.5H84.572z M240.988,290.725h-11.416v55h-97v-55h-11.418v-14h119.834V290.725z M200.572,193.04v64.5 h-39v-64.5H200.572z M161.572,166.725v-64.5h39v64.5H161.572z M277.572,257.54h-39v-64.5h39V257.54z M277.572,166.725h-39v-64.5h39 V166.725z M285.723,83.415H76.42v-28.69h209.303V83.415z" data-original="#000000" class="active-path" data-old_color="#000000" fill="#004182"></path> <path d="M38.348,285.495c-13.604,4.153-23.974-10.66-38.348-2.008c0,10.823,0,16.235,0,27.056 c14.374-8.654,24.743,6.159,38.348,2.007v48.174h8.891v-80h-8.891V285.495z" data-original="#000000" class="active-path" data-old_color="#000000" fill="#004182"></path> <path d="M323.795,285.495v-4.77h-8.889v80h8.889V312.55c13.605,4.154,23.975-10.661,38.348-2.007c0-10.821,0-16.233,0-27.056 C347.77,274.835,337.4,289.649,323.795,285.495z" data-original="#000000" class="active-path" data-old_color="#000000" fill="#004182"></path> <rect x="140.363" y="304.059" width="21.215" height="36.167" data-original="#000000" class="active-path" data-old_color="#000000" fill="#004182"></rect> <rect x="170.465" y="304.059" width="21.215" height="36.167" data-original="#000000" class="active-path" data-old_color="#000000" fill="#004182"></rect> <rect x="200.565" y="304.059" width="21.215" height="36.167" data-original="#000000" class="active-path" data-old_color="#000000" fill="#004182"></rect> </g></g> </svg> 