<?xml version="1.0" encoding="UTF-8"?> <svg xmlns="http://www.w3.org/2000/svg" width="574px" height="199px" clip-rule="evenodd" fill-rule="evenodd" image-rendering="optimizeQuality" shape-rendering="geometricPrecision" text-rendering="geometricPrecision" viewBox="0 0 20.843 7.2113" xml:space="preserve"> <defs> <style type="text/css"> <![CDATA[ .str0 {stroke:#263362;stroke-width:0.107224;stroke-linecap:round;stroke-linejoin:round} .str1 {stroke:#E31E24;stroke-width:0.428896;stroke-linecap:round;stroke-linejoin:round} .fil2 {fill:none} .fil0 {fill:none;fill-rule:nonzero} .fil1 {fill:#FEFEFE;fill-rule:nonzero} ]]> </style> </defs> <path class="fil0 str0" d="m0.53676 0.27565h-0.42954v-0.16843h1.3771c0.30743 0 0.53552 0.06738 0.68362 0.20145 0.1481 0.13476 0.22182 0.29615 0.22182 0.48568 0 0.13896-0.042118 0.26532-0.12567 0.37902-0.084192 0.1137-0.20072 0.1909-0.35024 0.2316v0.0084492c0.12635 0.018914 0.23864 0.062447 0.3369 0.12983 0.09826 0.06738 0.17478 0.15299 0.22954 0.2576 0.054727 0.10456 0.082091 0.2211 0.082091 0.34882 0 0.12211-0.031567 0.23722-0.094743 0.3453-0.063176 0.10812-0.16422 0.19515-0.30319 0.2618-0.139 0.066693-0.31515 0.1004-0.52853 0.1004h-1.5287v-0.16427h0.42954v-2.4173zm0.18108 0v1.0697h0.80435c0.12 0 0.23092-0.02316 0.33269-0.069481s0.1825-0.11018 0.24284-0.193c0.059659-0.082134 0.089854-0.17267 0.089854-0.27235 0-0.13896-0.051253-0.26317-0.15444-0.37198-0.10246-0.10881-0.29547-0.16285-0.57764-0.16285h-0.73766zm0 2.4173h0.63168c0.19163 0 0.35517-0.0098217 0.4913-0.028779 0.13549-0.018957 0.25481-0.070854 0.35727-0.15582 0.10246-0.084921 0.15372-0.21406 0.15372-0.38811 0-0.14458-0.063863-0.28217-0.1909-0.41341-0.12777-0.13124-0.36641-0.19725-0.71523-0.19725h-0.72784v1.1834z"></path> <path class="fil1" d="m0.53676 0.27565h-0.42954v-0.16843h1.3771c0.30743 0 0.53552 0.06738 0.68362 0.20145 0.1481 0.13476 0.22182 0.29615 0.22182 0.48568 0 0.13896-0.042118 0.26532-0.12567 0.37902-0.084192 0.1137-0.20072 0.1909-0.35024 0.2316v0.0084492c0.12635 0.018914 0.23864 0.062447 0.3369 0.12983 0.09826 0.06738 0.17478 0.15299 0.22954 0.2576 0.054727 0.10456 0.082091 0.2211 0.082091 0.34882 0 0.12211-0.031567 0.23722-0.094743 0.3453-0.063176 0.10812-0.16422 0.19515-0.30319 0.2618-0.139 0.066693-0.31515 0.1004-0.52853 0.1004h-1.5287v-0.16427h0.42954v-2.4173zm0.18108 0v1.0697h0.80435c0.12 0 0.23092-0.02316 0.33269-0.069481s0.1825-0.11018 0.24284-0.193c0.059659-0.082134 0.089854-0.17267 0.089854-0.27235 0-0.13896-0.051253-0.26317-0.15444-0.37198-0.10246-0.10881-0.29547-0.16285-0.57764-0.16285h-0.73766zm0 2.4173h0.63168c0.19163 0 0.35517-0.0098217 0.4913-0.028779 0.13549-0.018957 0.25481-0.070854 0.35727-0.15582 0.10246-0.084921 0.15372-0.21406 0.15372-0.38811 0-0.14458-0.063863-0.28217-0.1909-0.41341-0.12777-0.13124-0.36641-0.19725-0.71523-0.19725h-0.72784v1.1834z"></path> <path class="fil0 str0" d="m2.6851 0.77261h0.91312v0.17263h-0.43794v0.72856h0.36147c0.69623 0 1.0444 0.21616 1.0444 0.64853 0 0.35654-0.31301 0.53483-0.93911 0.53483h-0.9419v-0.16427h0.29409v-1.7477h-0.29409v-0.17263zm0.47517 1.9203h0.43794c0.0042461 0 0.0091355 0.0014154 0.01544 0.0042032 0.0063477 0.0028307 0.010551 0.0042461 0.013339 0.0042461 0.48572 0 0.72856-0.13339 0.72856-0.40007 0-0.31164-0.25266-0.46745-0.75734-0.46745h-0.43794v0.85908zm1.6999 0v-1.7477h-0.28564v-0.17263h0.7615v0.17263h-0.29478v1.7477h0.29478v0.16427h-0.7615v-0.16427h0.28564z"></path> <path id="1" class="fil1" d="m2.6851 0.77261h0.91312v0.17263h-0.43794v0.72856h0.36147c0.69623 0 1.0444 0.21616 1.0444 0.64853 0 0.35654-0.31301 0.53483-0.93911 0.53483h-0.9419v-0.16427h0.29409v-1.7477h-0.29409v-0.17263zm0.47517 1.9203h0.43794c0.0042461 0 0.0091355 0.0014154 0.01544 0.0042032 0.0063477 0.0028307 0.010551 0.0042461 0.013339 0.0042461 0.48572 0 0.72856-0.13339 0.72856-0.40007 0-0.31164-0.25266-0.46745-0.75734-0.46745h-0.43794v0.85908zm1.6999 0v-1.7477h-0.28564v-0.17263h0.7615v0.17263h-0.29478v1.7477h0.29478v0.16427h-0.7615v-0.16427h0.28564z"></path> <path class="fil0 str0" d="m10.229 1.8338c0 0.2274-0.058244 0.42392-0.17478 0.58956-0.11649 0.16564-0.26532 0.29058-0.44567 0.37481-0.18039 0.084235-0.3622 0.12635-0.54607 0.12635-0.13407 0-0.26952-0.02316-0.40501-0.07021-0.13613-0.046321-0.2618-0.11649-0.37829-0.20917-0.11653-0.093328-0.20986-0.20913-0.27934-0.34672-0.069481-0.13755-0.10461-0.29268-0.10461-0.46462 0-0.21054 0.050567-0.40286 0.15234-0.57622 0.10105-0.17409 0.24142-0.31095 0.41972-0.41062 0.17825-0.099675 0.37687-0.14947 0.59518-0.14947 0.2211 0 0.4204 0.049795 0.59801 0.14947 0.17825 0.099675 0.31721 0.23654 0.41757 0.4099 0.1004 0.17336 0.15093 0.36568 0.15093 0.57695zm-0.21059 0c0-0.16916-0.038601-0.32776-0.11649-0.47517-0.07793-0.14741-0.18953-0.266-0.33548-0.35513-0.14531-0.089167-0.31374-0.13339-0.50395-0.13339-0.19163 0-0.36006 0.044219-0.50537 0.13339-0.14527 0.088395-0.25687 0.20634-0.3348 0.35444-0.077888 0.1481-0.11649 0.3067-0.11649 0.47586 0 0.12284 0.02316 0.24005 0.068795 0.35234 0.046321 0.11228 0.11156 0.21196 0.19652 0.29971 0.084921 0.087023 0.1867 0.15582 0.3046 0.20703 0.11863 0.050567 0.24704 0.075829 0.38674 0.075829 0.18528 0 0.35165-0.042847 0.4976-0.12914 0.14672-0.086337 0.2597-0.20145 0.339-0.34535 0.079346-0.14316 0.11932-0.29688 0.11932-0.46042z"></path> <path id="1" class="fil1" d="m10.229 1.8338c0 0.2274-0.058244 0.42392-0.17478 0.58956-0.11649 0.16564-0.26532 0.29058-0.44567 0.37481-0.18039 0.084235-0.3622 0.12635-0.54607 0.12635-0.13407 0-0.26952-0.02316-0.40501-0.07021-0.13613-0.046321-0.2618-0.11649-0.37829-0.20917-0.11653-0.093328-0.20986-0.20913-0.27934-0.34672-0.069481-0.13755-0.10461-0.29268-0.10461-0.46462 0-0.21054 0.050567-0.40286 0.15234-0.57622 0.10105-0.17409 0.24142-0.31095 0.41972-0.41062 0.17825-0.099675 0.37687-0.14947 0.59518-0.14947 0.2211 0 0.4204 0.049795 0.59801 0.14947 0.17825 0.099675 0.31721 0.23654 0.41757 0.4099 0.1004 0.17336 0.15093 0.36568 0.15093 0.57695zm-0.21059 0c0-0.16916-0.038601-0.32776-0.11649-0.47517-0.07793-0.14741-0.18953-0.266-0.33548-0.35513-0.14531-0.089167-0.31374-0.13339-0.50395-0.13339-0.19163 0-0.36006 0.044219-0.50537 0.13339-0.14527 0.088395-0.25687 0.20634-0.3348 0.35444-0.077888 0.1481-0.11649 0.3067-0.11649 0.47586 0 0.12284 0.02316 0.24005 0.068795 0.35234 0.046321 0.11228 0.11156 0.21196 0.19652 0.29971 0.084921 0.087023 0.1867 0.15582 0.3046 0.20703 0.11863 0.050567 0.24704 0.075829 0.38674 0.075829 0.18528 0 0.35165-0.042847 0.4976-0.12914 0.14672-0.086337 0.2597-0.20145 0.339-0.34535 0.079346-0.14316 0.11932-0.29688 0.11932-0.46042z"></path> <path class="fil0 str0" d="m11.556 3.9973h-1.3476v-0.16002h0.41341v-2.892h-0.41341v-0.17263h0.59449v0.44215h0.0084064c0.10251-0.17194 0.23375-0.30108 0.39377-0.38742 0.16071-0.086337 0.33196-0.12983 0.51588-0.12983 0.16564 0 0.31652 0.031567 0.45128 0.094014 0.13549 0.06249 0.24988 0.1481 0.34462 0.25691 0.094786 0.10877 0.16637 0.23092 0.21621 0.36709 0.049109 0.13544 0.073684 0.27514 0.073684 0.4183 0 0.15299-0.030194 0.2962-0.09054 0.43095s-0.14179 0.25125-0.24494 0.34951c-0.10251 0.098303-0.21758 0.17478-0.34535 0.22882-0.12841 0.054041-0.2576 0.081447-0.38811 0.081447-0.16778 0-0.33621-0.042118-0.50605-0.12704-0.16989-0.084921-0.31022-0.2211-0.42045-0.40852h-0.0084064v1.4482h0.7531v0.16002zm1.0402-2.1634c0-0.16984-0.033711-0.32849-0.10109-0.47659-0.06738-0.1481-0.16706-0.266-0.29761-0.35444-0.13124-0.088438-0.28706-0.13266-0.46883-0.13266-0.15792 0-0.31022 0.037228-0.45622 0.11233-0.146 0.07437-0.2639 0.18108-0.35517 0.32073-0.09054 0.13969-0.13613 0.30113-0.13613 0.48431 0 0.12 0.021745 0.23791 0.065235 0.35375 0.043533 0.11649 0.10602 0.22178 0.18811 0.31721 0.082134 0.095472 0.17971 0.17057 0.29409 0.22671 0.1137 0.055456 0.23722 0.083549 0.37061 0.083549 0.15792 0 0.30602-0.03933 0.44356-0.11863 0.13759-0.079303 0.24777-0.19022 0.32986-0.33269 0.082134-0.14316 0.12356-0.30392 0.12356-0.48358z"></path> <path id="1" class="fil1" d="m11.556 3.9973h-1.3476v-0.16002h0.41341v-2.892h-0.41341v-0.17263h0.59449v0.44215h0.0084064c0.10251-0.17194 0.23375-0.30108 0.39377-0.38742 0.16071-0.086337 0.33196-0.12983 0.51588-0.12983 0.16564 0 0.31652 0.031567 0.45128 0.094014 0.13549 0.06249 0.24988 0.1481 0.34462 0.25691 0.094786 0.10877 0.16637 0.23092 0.21621 0.36709 0.049109 0.13544 0.073684 0.27514 0.073684 0.4183 0 0.15299-0.030194 0.2962-0.09054 0.43095s-0.14179 0.25125-0.24494 0.34951c-0.10251 0.098303-0.21758 0.17478-0.34535 0.22882-0.12841 0.054041-0.2576 0.081447-0.38811 0.081447-0.16778 0-0.33621-0.042118-0.50605-0.12704-0.16989-0.084921-0.31022-0.2211-0.42045-0.40852h-0.0084064v1.4482h0.7531v0.16002zm1.0402-2.1634c0-0.16984-0.033711-0.32849-0.10109-0.47659-0.06738-0.1481-0.16706-0.266-0.29761-0.35444-0.13124-0.088438-0.28706-0.13266-0.46883-0.13266-0.15792 0-0.31022 0.037228-0.45622 0.11233-0.146 0.07437-0.2639 0.18108-0.35517 0.32073-0.09054 0.13969-0.13613 0.30113-0.13613 0.48431 0 0.12 0.021745 0.23791 0.065235 0.35375 0.043533 0.11649 0.10602 0.22178 0.18811 0.31721 0.082134 0.095472 0.17971 0.17057 0.29409 0.22671 0.1137 0.055456 0.23722 0.083549 0.37061 0.083549 0.15792 0 0.30602-0.03933 0.44356-0.11863 0.13759-0.079303 0.24777-0.19022 0.32986-0.33269 0.082134-0.14316 0.12356-0.30392 0.12356-0.48358z"></path> <path class="fil0 str0" d="m12.918 0.77261h0.91312v0.17263h-0.43794v0.72856h0.36147c0.69623 0 1.0444 0.21616 1.0444 0.64853 0 0.35654-0.31301 0.53483-0.93911 0.53483h-0.9419v-0.16427h0.29409v-1.7477h-0.29409v-0.17263zm0.47517 1.9203h0.43794c0.0042461 0 0.0091355 0.0014154 0.01544 0.0042032 0.0063477 0.0028307 0.010551 0.0042461 0.013339 0.0042461 0.48572 0 0.72856-0.13339 0.72856-0.40007 0-0.31164-0.25266-0.46745-0.75734-0.46745h-0.43794v0.85908zm1.6999 1.133v-2.8806h-0.28564v-0.17263h0.7615v0.17263h-0.29478v2.8806h0.29478v0.16427h-0.7615v-0.16427h0.28564z"></path> <path id="1" class="fil1" d="m12.918 0.77261h0.91312v0.17263h-0.43794v0.72856h0.36147c0.69623 0 1.0444 0.21616 1.0444 0.64853 0 0.35654-0.31301 0.53483-0.93911 0.53483h-0.9419v-0.16427h0.29409v-1.7477h-0.29409v-0.17263zm0.47517 1.9203h0.43794c0.0042461 0 0.0091355 0.0014154 0.01544 0.0042032 0.0063477 0.0028307 0.010551 0.0042461 0.013339 0.0042461 0.48572 0 0.72856-0.13339 0.72856-0.40007 0-0.31164-0.25266-0.46745-0.75734-0.46745h-0.43794v0.85908zm1.6999 1.133v-2.8806h-0.28564v-0.17263h0.7615v0.17263h-0.29478v2.8806h0.29478v0.16427h-0.7615v-0.16427h0.28564z"></path> <polyline class="fil2 str1" points="0.28243 4.5725 8.0534 4.5725 9.8809 6.9969 12.868 4.3008"></polyline> <path class="fil0 str0" d="m13.657 6.5538h-1.9005v-0.2126l1.4278-1.3137c0.19343-0.17572 0.2898-0.39681 0.2898-0.66324 0-0.16654-0.041817-0.30327-0.12472-0.41028-0.083592-0.10701-0.18352-0.18425-0.30044-0.23173-0.11619-0.047436-0.22247-0.07154-0.31884-0.07154-0.090711 0-0.18919 0.019815-0.2962 0.058802s-0.19841 0.099204-0.27424 0.18069c-0.075829 0.080761-0.11336 0.18142-0.11336 0.29976h-0.18425v-0.2799c0.077244-0.10062 0.16723-0.18211 0.26999-0.24589 0.10345-0.063091 0.2069-0.10842 0.31035-0.13536 0.10345-0.026206 0.19914-0.039673 0.2877-0.039673 0.15728 0 0.30752 0.036842 0.45206 0.10984 0.14458 0.072955 0.26077 0.17855 0.35006 0.31601 0.088567 0.13819 0.13322 0.29834 0.13322 0.47903 0 0.16508-0.036156 0.31108-0.1077 0.4379-0.071583 0.12682-0.15024 0.22817-0.23666 0.30259l-1.3598 1.2535h1.5334v-0.50099h0.16229v0.6668z"></path> <path id="1" class="fil1" d="m13.657 6.5538h-1.9005v-0.2126l1.4278-1.3137c0.19343-0.17572 0.2898-0.39681 0.2898-0.66324 0-0.16654-0.041817-0.30327-0.12472-0.41028-0.083592-0.10701-0.18352-0.18425-0.30044-0.23173-0.11619-0.047436-0.22247-0.07154-0.31884-0.07154-0.090711 0-0.18919 0.019815-0.2962 0.058802s-0.19841 0.099204-0.27424 0.18069c-0.075829 0.080761-0.11336 0.18142-0.11336 0.29976h-0.18425v-0.2799c0.077244-0.10062 0.16723-0.18211 0.26999-0.24589 0.10345-0.063091 0.2069-0.10842 0.31035-0.13536 0.10345-0.026206 0.19914-0.039673 0.2877-0.039673 0.15728 0 0.30752 0.036842 0.45206 0.10984 0.14458 0.072955 0.26077 0.17855 0.35006 0.31601 0.088567 0.13819 0.13322 0.29834 0.13322 0.47903 0 0.16508-0.036156 0.31108-0.1077 0.4379-0.071583 0.12682-0.15024 0.22817-0.23666 0.30259l-1.3598 1.2535h1.5334v-0.50099h0.16229v0.6668z"></path> <path class="fil0 str0" d="m18.23 6.5538h-1.9005v-0.2126l1.4278-1.3137c0.19343-0.17572 0.2898-0.39681 0.2898-0.66324 0-0.16654-0.041817-0.30327-0.12472-0.41028-0.083592-0.10701-0.18352-0.18425-0.30044-0.23173-0.11619-0.047436-0.22247-0.07154-0.31884-0.07154-0.090711 0-0.18919 0.019815-0.2962 0.058802s-0.19841 0.099204-0.27424 0.18069c-0.075829 0.080761-0.11336 0.18142-0.11336 0.29976h-0.18425v-0.2799c0.077244-0.10062 0.16723-0.18211 0.26999-0.24589 0.10345-0.063091 0.2069-0.10842 0.31035-0.13536 0.10345-0.026206 0.19914-0.039673 0.2877-0.039673 0.15728 0 0.30752 0.036842 0.45206 0.10984 0.14458 0.072955 0.26077 0.17855 0.35006 0.31601 0.088567 0.13819 0.13322 0.29834 0.13322 0.47903 0 0.16508-0.036156 0.31108-0.1077 0.4379-0.071583 0.12682-0.15024 0.22817-0.23666 0.30259l-1.3598 1.2535h1.5334v-0.50099h0.16229v0.6668z"></path> <path id="1" class="fil1" d="m18.23 6.5538h-1.9005v-0.2126l1.4278-1.3137c0.19343-0.17572 0.2898-0.39681 0.2898-0.66324 0-0.16654-0.041817-0.30327-0.12472-0.41028-0.083592-0.10701-0.18352-0.18425-0.30044-0.23173-0.11619-0.047436-0.22247-0.07154-0.31884-0.07154-0.090711 0-0.18919 0.019815-0.2962 0.058802s-0.19841 0.099204-0.27424 0.18069c-0.075829 0.080761-0.11336 0.18142-0.11336 0.29976h-0.18425v-0.2799c0.077244-0.10062 0.16723-0.18211 0.26999-0.24589 0.10345-0.063091 0.2069-0.10842 0.31035-0.13536 0.10345-0.026206 0.19914-0.039673 0.2877-0.039673 0.15728 0 0.30752 0.036842 0.45206 0.10984 0.14458 0.072955 0.26077 0.17855 0.35006 0.31601 0.088567 0.13819 0.13322 0.29834 0.13322 0.47903 0 0.16508-0.036156 0.31108-0.1077 0.4379-0.071583 0.12682-0.15024 0.22817-0.23666 0.30259l-1.3598 1.2535h1.5334v-0.50099h0.16229v0.6668z"></path> <path class="fil0 str0" d="m16.154 5.5234c0 0.2274-0.058244 0.42392-0.17478 0.58956-0.11649 0.16564-0.26532 0.29058-0.44567 0.37481-0.18039 0.084235-0.3622 0.12635-0.54607 0.12635-0.13407 0-0.26952-0.02316-0.40501-0.07021-0.13613-0.046321-0.2618-0.11649-0.37829-0.20917-0.11653-0.093328-0.20986-0.20913-0.27934-0.34672-0.069481-0.13755-0.10461-0.29268-0.10461-0.46462 0-0.21054 0.050567-0.40286 0.15234-0.57622 0.10105-0.17409 0.24142-0.31095 0.41972-0.41062 0.17825-0.099675 0.37687-0.14947 0.59518-0.14947 0.2211 0 0.4204 0.049795 0.59801 0.14947 0.17825 0.099675 0.31721 0.23654 0.41757 0.4099 0.1004 0.17336 0.15093 0.36568 0.15093 0.57695zm-0.21059 0c0-0.16916-0.038601-0.32776-0.11649-0.47517-0.07793-0.14741-0.18953-0.266-0.33548-0.35513-0.14531-0.089167-0.31374-0.13339-0.50395-0.13339-0.19163 0-0.36006 0.044219-0.50537 0.13339-0.14527 0.088395-0.25687 0.20634-0.3348 0.35444-0.077888 0.1481-0.11649 0.3067-0.11649 0.47586 0 0.12284 0.02316 0.24005 0.068795 0.35234 0.046321 0.11228 0.11156 0.21196 0.19652 0.29971 0.084921 0.087023 0.1867 0.15582 0.3046 0.20703 0.11863 0.050567 0.24704 0.075829 0.38674 0.075829 0.18528 0 0.35165-0.042847 0.4976-0.12914 0.14672-0.086337 0.2597-0.20145 0.339-0.34535 0.079346-0.14316 0.11932-0.29688 0.11932-0.46042z"></path> <path id="1" class="fil1" d="m16.154 5.5234c0 0.2274-0.058244 0.42392-0.17478 0.58956-0.11649 0.16564-0.26532 0.29058-0.44567 0.37481-0.18039 0.084235-0.3622 0.12635-0.54607 0.12635-0.13407 0-0.26952-0.02316-0.40501-0.07021-0.13613-0.046321-0.2618-0.11649-0.37829-0.20917-0.11653-0.093328-0.20986-0.20913-0.27934-0.34672-0.069481-0.13755-0.10461-0.29268-0.10461-0.46462 0-0.21054 0.050567-0.40286 0.15234-0.57622 0.10105-0.17409 0.24142-0.31095 0.41972-0.41062 0.17825-0.099675 0.37687-0.14947 0.59518-0.14947 0.2211 0 0.4204 0.049795 0.59801 0.14947 0.17825 0.099675 0.31721 0.23654 0.41757 0.4099 0.1004 0.17336 0.15093 0.36568 0.15093 0.57695zm-0.21059 0c0-0.16916-0.038601-0.32776-0.11649-0.47517-0.07793-0.14741-0.18953-0.266-0.33548-0.35513-0.14531-0.089167-0.31374-0.13339-0.50395-0.13339-0.19163 0-0.36006 0.044219-0.50537 0.13339-0.14527 0.088395-0.25687 0.20634-0.3348 0.35444-0.077888 0.1481-0.11649 0.3067-0.11649 0.47586 0 0.12284 0.02316 0.24005 0.068795 0.35234 0.046321 0.11228 0.11156 0.21196 0.19652 0.29971 0.084921 0.087023 0.1867 0.15582 0.3046 0.20703 0.11863 0.050567 0.24704 0.075829 0.38674 0.075829 0.18528 0 0.35165-0.042847 0.4976-0.12914 0.14672-0.086337 0.2597-0.20145 0.339-0.34535 0.079346-0.14316 0.11932-0.29688 0.11932-0.46042z"></path> <path class="fil0 str0" d="m20.736 5.5234c0 0.2274-0.058244 0.42392-0.17478 0.58956-0.11649 0.16564-0.26532 0.29058-0.44567 0.37481-0.18039 0.084235-0.3622 0.12635-0.54607 0.12635-0.13407 0-0.26952-0.02316-0.40501-0.07021-0.13613-0.046321-0.2618-0.11649-0.37829-0.20917-0.11653-0.093328-0.20986-0.20913-0.27934-0.34672-0.069481-0.13755-0.10461-0.29268-0.10461-0.46462 0-0.21054 0.050567-0.40286 0.15234-0.57622 0.10105-0.17409 0.24142-0.31095 0.41972-0.41062 0.17825-0.099675 0.37687-0.14947 0.59518-0.14947 0.2211 0 0.4204 0.049795 0.59801 0.14947 0.17825 0.099675 0.31721 0.23654 0.41757 0.4099 0.1004 0.17336 0.15093 0.36568 0.15093 0.57695zm-0.21059 0c0-0.16916-0.038601-0.32776-0.11649-0.47517-0.07793-0.14741-0.18953-0.266-0.33548-0.35513-0.14531-0.089167-0.31374-0.13339-0.50395-0.13339-0.19163 0-0.36006 0.044219-0.50537 0.13339-0.14527 0.088395-0.25687 0.20634-0.3348 0.35444-0.077888 0.1481-0.11649 0.3067-0.11649 0.47586 0 0.12284 0.02316 0.24005 0.068795 0.35234 0.046321 0.11228 0.11156 0.21196 0.19652 0.29971 0.084921 0.087023 0.1867 0.15582 0.3046 0.20703 0.11863 0.050567 0.24704 0.075829 0.38674 0.075829 0.18528 0 0.35165-0.042847 0.4976-0.12914 0.14672-0.086337 0.2597-0.20145 0.339-0.34535 0.079346-0.14316 0.11932-0.29688 0.11932-0.46042z"></path> <path id="a" class="fil1" d="m20.736 5.5234c0 0.2274-0.058244 0.42392-0.17478 0.58956-0.11649 0.16564-0.26532 0.29058-0.44567 0.37481-0.18039 0.084235-0.3622 0.12635-0.54607 0.12635-0.13407 0-0.26952-0.02316-0.40501-0.07021-0.13613-0.046321-0.2618-0.11649-0.37829-0.20917-0.11653-0.093328-0.20986-0.20913-0.27934-0.34672-0.069481-0.13755-0.10461-0.29268-0.10461-0.46462 0-0.21054 0.050567-0.40286 0.15234-0.57622 0.10105-0.17409 0.24142-0.31095 0.41972-0.41062 0.17825-0.099675 0.37687-0.14947 0.59518-0.14947 0.2211 0 0.4204 0.049795 0.59801 0.14947 0.17825 0.099675 0.31721 0.23654 0.41757 0.4099 0.1004 0.17336 0.15093 0.36568 0.15093 0.57695zm-0.21059 0c0-0.16916-0.038601-0.32776-0.11649-0.47517-0.07793-0.14741-0.18953-0.266-0.33548-0.35513-0.14531-0.089167-0.31374-0.13339-0.50395-0.13339-0.19163 0-0.36006 0.044219-0.50537 0.13339-0.14527 0.088395-0.25687 0.20634-0.3348 0.35444-0.077888 0.1481-0.11649 0.3067-0.11649 0.47586 0 0.12284 0.02316 0.24005 0.068795 0.35234 0.046321 0.11228 0.11156 0.21196 0.19652 0.29971 0.084921 0.087023 0.1867 0.15582 0.3046 0.20703 0.11863 0.050567 0.24704 0.075829 0.38674 0.075829 0.18528 0 0.35165-0.042847 0.4976-0.12914 0.14672-0.086337 0.2597-0.20145 0.339-0.34535 0.079346-0.14316 0.11932-0.29688 0.11932-0.46042z"></path> <line class="fil2 str1" x1="16.119" x2="20.57" y1="2.2651" y2="2.2651"></line> <path class="fil0 str0" d="m5.6999 0.78102h1.6076 0.047607 0.16993v0.3658h-0.21754v-0.19318h-1.1325v0.72856h0.36147c0.69623 0 1.0444 0.21616 1.0444 0.64853 0 0.35654-0.31301 0.53483-0.93911 0.53483h-0.9419v-0.16427h0.29409v-1.7477h-0.29409v-0.17263zm0.47517 1.9203h0.43794c0.0042461 0 0.0091355 0.0014154 0.01544 0.0042032 0.0063477 0.0028307 0.010551 0.0042461 0.013339 0.0042461 0.48572 0 0.72856-0.13339 0.72856-0.40007 0-0.31164-0.25266-0.46745-0.75734-0.46745h-0.43794v0.85908z"></path> <path class="fil1" d="m5.6999 0.78102h1.6076 0.047607 0.16993v0.3658h-0.21754v-0.19318h-1.1325v0.72856h0.36147c0.69623 0 1.0444 0.21616 1.0444 0.64853 0 0.35654-0.31301 0.53483-0.93911 0.53483h-0.9419v-0.16427h0.29409v-1.7477h-0.29409v-0.17263zm0.47517 1.9203h0.43794c0.0042461 0 0.0091355 0.0014154 0.01544 0.0042032 0.0063477 0.0028307 0.010551 0.0042461 0.013339 0.0042461 0.48572 0 0.72856-0.13339 0.72856-0.40007 0-0.31164-0.25266-0.46745-0.75734-0.46745h-0.43794v0.85908z"></path> </svg> 