<?xml version="1.0" encoding="UTF-8"?> <svg xmlns="http://www.w3.org/2000/svg" xmlns:xlink="http://www.w3.org/1999/xlink" id="Capa_1" x="0px" y="0px" width="512px" height="512px" viewBox="0 0 198.296 198.296" style="enable-background:new 0 0 198.296 198.296;" xml:space="preserve" class=""><g><g> <g> <path d="M132.362,113.264v-6.273c0.784-0.745,1.386-1.713,1.677-2.838c0.542-2.096,12.953-51.521-14.825-67.363 c-0.863-0.493-2.064-0.79-3.478-0.79c-9.29,0-24.741-0.129-35.538-0.129c-1.163,0-2.438,0.338-3.134,0.735 c-27.779,15.84-15.378,65.269-14.836,67.364c0.695,2.699,3.125,4.617,5.789,4.617c0.494,0,0.998-0.062,1.497-0.189 c3.202-0.826,5.159-4.219,4.338-7.42c-2.685-10.454-6.39-37.261,4.269-49.827l-0.126,138.163c0,4.961,4.057,8.983,9.019,8.983 c4.961,0,9.018-4.022,9.018-8.983v-67.816h4.313v67.816c0,4.961,3.99,8.983,8.953,8.983c4.96,0,8.95-4.022,8.95-8.983V51.38 c10.455,12.585,6.882,39.338,4.201,49.774c-0.791,3.068,0.896,6.189,3.901,7.178v4.932c-3.393,0-6.143,2.75-6.143,6.143v27.834 c0,3.394,2.75,6.144,6.143,6.144h6.796c3.393,0,6.143-2.75,6.143-6.144v-27.834c0-3.393-2.75-6.143-6.143-6.143H132.362z M94.071,43.525c0-1.471,1.192-2.663,2.663-2.663h2.777c1.471,0,2.663,1.192,2.663,2.663v2.776c0,1.471-1.192,2.663-2.663,2.663 h-2.777c-1.471,0-2.663-1.192-2.663-2.663V43.525z M99.26,77.3c-0.643,0.56-1.6,0.56-2.242,0l-3.133-2.728 c-1.101-0.959-1.615-2.426-1.354-3.861l3.343-18.383c0.147-0.813,0.854-1.402,1.68-1.402h1.17c0.825,0,1.532,0.59,1.68,1.402 l3.343,18.385c0.262,1.436-0.254,2.902-1.354,3.861L99.26,77.3z" data-original="#000000" class="active-path" data-old_color="#000000" fill="#004182"></path> <ellipse cx="98.156" cy="16.576" rx="16.796" ry="16.576" data-original="#000000" class="active-path" data-old_color="#000000" fill="#004182"></ellipse> </g> </g></g> </svg> 